<svg display="none"
xmlns="http://www.w3.org/2000/svg" xmlns:xlink="http://www.w3.org/1999/xlink">
    <symbol id="visa" viewBox="0 0 512 512">
 <path style="fill:#FFFFFF;" d="M512,402.281c0,16.716-13.55,30.267-30.265,30.267H30.265C13.55,432.549,0,418.997,0,402.281V109.717
	c0-16.716,13.55-30.266,30.265-30.266h451.47c16.716,0,30.265,13.551,30.265,30.266V402.281L512,402.281z"/>
<path style="fill:#F79F1A;" d="M113.64,258.035l-12.022-57.671c-2.055-7.953-8.035-10.319-15.507-10.632H30.993l-0.491,2.635
	C73.431,202.774,101.836,227.88,113.64,258.035z"/>
<g>
	<polygon style="fill:#059BBF;" points="241.354,190.892 205.741,190.892 183.499,321.419 219.053,321.419 	"/>
	<path style="fill:#059BBF;" d="M135.345,321.288l56.01-130.307h-37.691l-34.843,89.028l-3.719-13.442
		c-6.83-16.171-26.35-39.446-49.266-54.098l31.85,108.863L135.345,321.288z"/>
	<path style="fill:#059BBF;" d="M342.931,278.75c0.132-14.819-9.383-26.122-29.887-35.458c-12.461-6.03-20.056-10.051-19.965-16.17
		c0-5.406,6.432-11.213,20.368-11.213c11.661-0.179,20.057,2.367,26.624,5.003l3.218,1.475l4.826-28.277
		c-7.059-2.637-18.094-5.451-31.895-5.451c-35.157,0-59.904,17.691-60.128,43.064c-0.224,18.763,17.692,29.216,31.181,35.469
		c13.847,6.374,18.493,10.453,18.404,16.171c-0.089,8.743-11.035,12.73-21.264,12.73c-14.25,0-21.8-1.965-33.509-6.843l-4.55-2.09
		l-4.998,29.249c8.303,3.629,23.668,6.801,39.618,6.933C318.361,323.342,342.663,305.876,342.931,278.75z"/>
	<path style="fill:#059BBF;" d="M385.233,301.855c4.065,0,40.382,0.045,45.566,0.045c1.072,4.545,4.333,19.565,4.333,19.565h33.011
		L439.33,191.027h-27.472c-8.533,0-14.874,2.323-18.628,10.809l-52.845,119.629h37.392
		C377.774,321.465,383.848,305.386,385.233,301.855z M409.622,238.645c-0.176,0.357,2.95-7.549,4.737-12.463l2.411,11.256
		c0,0,6.792,31.182,8.22,37.704h-29.528C398.411,267.638,409.622,238.645,409.622,238.645z"/>
	<path style="fill:#059BBF;" d="M481.735,79.451H30.265C13.55,79.451,0,93.001,0,109.717v31.412h512v-31.412
		C512,93.001,498.451,79.451,481.735,79.451z"/>
</g>
<path style="fill:#F79F1A;" d="M481.735,432.549H30.265C13.55,432.549,0,418.998,0,402.283v-31.412h512v31.412
	C512,418.998,498.451,432.549,481.735,432.549z"/>
<path style="opacity:0.15;fill:#202121;enable-background:new    ;" d="M21.517,402.281V109.717
	c0-16.716,13.551-30.266,30.267-30.266h-21.52C13.55,79.451,0,93.001,0,109.717v292.565c0,16.716,13.55,30.267,30.265,30.267h21.52
	C35.069,432.549,21.517,418.997,21.517,402.281z"/>
    </symbol> 

    <symbol id="master-card" viewBox="0 0 473.94 473.94">
     <path style="fill:#931B1D;" d="M159.5,121.955c-59.797,0.378-108.212,49.133-108.212,109.143
	c0,60.246,48.789,109.136,108.911,109.136c28.202,0,53.923-10.773,73.275-28.437l-0.004-0.004h0.015
	c3.97-3.618,7.667-7.532,11.061-11.689h-22.308c-2.982-3.603-5.691-7.368-8.123-11.248h38.477c2.35-3.749,4.46-7.644,6.35-11.678
	H207.77c-1.747-3.749-3.263-7.57-4.554-11.465h60.28c3.641-10.881,5.605-22.525,5.605-34.615c0-8.03-0.872-15.843-2.507-23.379
	h-66.577c0.831-3.88,1.867-7.708,3.102-11.461h60.31c-1.347-4.004-2.915-7.899-4.696-11.686h-50.97
	c1.837-3.94,3.921-7.76,6.245-11.465h38.454c-2.563-4.09-5.392-7.996-8.449-11.678h-21.44c3.319-3.918,6.963-7.603,10.918-11.019
	c-19.345-17.672-45.069-28.452-73.286-28.452C159.96,121.955,159.728,121.955,159.5,121.955z"/>
<path style="fill:#F16622;" d="M415.189,231.132c0.011,60.269-48.721,109.14-108.885,109.158
	c-60.138,0.019-108.908-48.834-108.926-109.113v-0.045c-0.019-60.287,48.729-109.162,108.878-109.177
	c60.145-0.022,108.919,48.834,108.934,109.117C415.189,231.072,415.189,231.099,415.189,231.132z"/>
<path style="fill:#F7981D;" d="M415.189,232.337c0.011,60.272-48.721,109.151-108.885,109.162
	c-60.138,0.022-108.908-48.837-108.926-109.106v-0.056c-0.019-60.276,48.729-109.155,108.878-109.17
	c60.145-0.022,108.919,48.834,108.934,109.113C415.189,232.281,415.189,232.315,415.189,232.337z"/>
<path style="fill:#CB2026;" d="M159.5,123.194c-59.797,0.385-108.212,49.129-108.212,109.143
	c0,60.25,48.789,109.143,108.911,109.143c28.202,0,53.923-10.78,73.275-28.441l-0.004-0.011h0.015
	c3.97-3.615,7.667-7.517,11.061-11.689h-22.308c-2.982-3.596-5.691-7.353-8.123-11.233h38.477c2.35-3.753,4.46-7.659,6.35-11.689
	H207.77c-1.747-3.753-3.263-7.573-4.554-11.461h60.28c3.641-10.889,5.605-22.529,5.605-34.619c0-8.026-0.872-15.843-2.507-23.375
	h-66.577c0.831-3.876,1.867-7.712,3.102-11.461h60.31c-1.347-4.007-2.915-7.903-4.696-11.693h-50.97
	c1.837-3.925,3.921-7.76,6.245-11.461h38.454c-2.563-4.086-5.392-7.989-8.449-11.686h-21.44c3.319-3.91,6.963-7.596,10.918-11.019
	c-19.345-17.669-45.069-28.449-73.286-28.449C159.96,123.194,159.728,123.194,159.5,123.194z"/>
<g>
	<path style="fill:#FFFFFF;" d="M199.357,260.123l1.456-9.875c-0.793,0-1.961,0.337-2.99,0.337c-4.034,0-4.483-2.148-4.221-3.738
		l3.259-20.157h6.133l1.482-10.93h-5.781l1.179-6.788h-11.599c-0.251,0.254-6.847,38.215-6.847,42.828
		c0,6.844,3.828,9.893,9.238,9.848C194.893,261.609,198.197,260.438,199.357,260.123z"/>
	<path style="fill:#FFFFFF;" d="M203.035,241.291c0,16.423,10.81,20.329,20.026,20.329c8.509,0,12.247-1.912,12.247-1.912
		l2.047-11.21c0,0-6.469,2.874-12.314,2.874c-12.449,0-10.267-9.309-10.267-9.309h23.569c0,0,1.515-7.536,1.515-10.604
		c0-7.652-3.809-16.984-16.535-16.984C211.66,214.478,203.035,227.061,203.035,241.291z M223.372,224.876
		c6.541,0,5.332,7.371,5.332,7.966h-12.872C215.828,232.083,217.045,224.876,223.372,224.876z"/>
	<path style="fill:#FFFFFF;" d="M296.793,260.123l2.077-12.681c0,0-5.691,2.874-9.594,2.874c-8.224,0-11.521-6.309-11.521-13.059
		c0-13.725,7.076-21.276,14.96-21.276c5.905,0,10.649,3.33,10.649,3.33l1.89-12.303c0,0-7.031-2.859-13.055-2.859
		c-13.388,0-26.417,11.626-26.417,33.5c0,14.481,7.038,24.063,20.875,24.063C290.566,261.714,296.793,260.123,296.793,260.123z"/>
	<path style="fill:#FFFFFF;" d="M135.583,214.654c-7.951,0-14.047,2.556-14.047,2.556l-1.68,10.013c0,0,5.036-2.043,12.636-2.043
		c4.318,0,7.472,0.483,7.472,4.004c0,2.133-0.385,2.922-0.385,2.922s-3.401-0.288-4.98-0.288c-10.024,0-20.561,4.288-20.561,17.227
		c0,10.185,6.907,12.527,11.192,12.527c8.183,0,11.7-5.317,11.895-5.34l-0.382,4.445h10.208l4.557-32.011
		C151.508,215.091,139.687,214.654,135.583,214.654z M138.071,240.704c0.221,1.957-1.227,11.124-8.209,11.124
		c-3.6,0-4.539-2.761-4.539-4.393c0-3.177,1.725-6.997,10.226-6.997C137.521,240.438,137.734,240.655,138.071,240.704z"/>
	<path style="fill:#FFFFFF;" d="M162.362,261.328c2.608,0,17.538,0.67,17.538-14.769c0-14.436-13.818-11.588-13.818-17.388
		c0-2.877,2.253-3.798,6.368-3.798c1.635,0,7.925,0.528,7.925,0.528l1.467-10.267c0,0-4.071-0.906-10.694-0.906
		c-8.587,0-17.287,3.42-17.287,15.165c0,13.317,14.518,11.97,14.518,17.575c0,3.742-4.06,4.049-7.188,4.049
		c-5.403,0-10.271-1.86-10.294-1.774l-1.545,10.151C149.622,259.989,152.63,261.328,162.362,261.328z"/>
	<path style="fill:#FFFFFF;" d="M392.84,205.445l-2.496,15.551c0,0-4.367-6.035-11.195-6.035c-10.63,0-19.483,12.834-19.483,27.588
		c0,9.523,4.718,18.844,14.38,18.844c6.948,0,10.791-4.853,10.791-4.853l-0.505,4.142h11.278l8.864-55.262L392.84,205.445z
		 M387.459,235.78c0,6.133-3.038,14.323-9.321,14.323c-4.176,0-6.125-3.51-6.125-9.018c0-9.003,4.034-14.96,9.122-14.96
		C385.315,226.126,387.459,229.007,387.459,235.78z"/>
	<path style="fill:#FFFFFF;" d="M72.792,260.73l7.068-41.721l1.029,41.721h7.992l14.903-41.721L97.18,260.73h11.869l9.149-55.322
		h-18.36l-11.431,33.938l-0.595-33.938H70.895l-9.276,55.322H72.792L72.792,260.73z"/>
	<path style="fill:#FFFFFF;" d="M251.454,260.808c3.375-19.229,4-34.851,12.06-32.003c1.411-7.439,2.769-10.316,4.303-13.47
		c0,0-0.718-0.153-2.238-0.153c-5.182,0-9.033,7.109-9.033,7.109l1.025-6.526h-10.799l-7.225,45.043H251.454z"/>
	<path style="fill:#FFFFFF;" d="M323.546,214.654c-7.951,0-14.043,2.556-14.043,2.556l-1.676,10.013c0,0,5.025-2.043,12.632-2.043
		c4.314,0,7.476,0.483,7.476,4.004c0,2.133-0.389,2.922-0.389,2.922s-3.401-0.288-4.992-0.288c-10.028,0-20.553,4.288-20.553,17.227
		c0,10.185,6.911,12.527,11.192,12.527c8.183,0,11.704-5.317,11.891-5.34l-0.378,4.445h10.215l4.554-32.011
		C339.479,215.091,327.662,214.654,323.546,214.654z M326.038,240.704c0.221,1.957-1.22,11.124-8.213,11.124
		c-3.596,0-4.528-2.761-4.528-4.393c0-3.177,1.725-6.997,10.211-6.997C325.492,240.438,325.698,240.655,326.038,240.704z"/>
	<path style="fill:#FFFFFF;" d="M348.799,260.808c3.379-19.229,4.004-34.851,12.063-32.003c1.411-7.439,2.769-10.316,4.311-13.47
		c0,0-0.73-0.153-2.241-0.153c-5.197,0-9.036,7.109-9.036,7.109l1.033-6.526h-10.806l-7.229,45.04H348.8L348.799,260.808
		L348.799,260.808z"/>
</g>
    </symbol> 

    <symbol id="maestro"  viewBox="0 0 473.94 473.94">
<g>
	<path style="fill:#009DDD;" d="M230.767,308.282c20.61-18.604,33.616-45.616,33.616-75.618c0-30.009-13.01-57.006-33.616-75.816
		c-18.009-16.4-42.002-26.406-68.411-26.406c-56.404,0-102.226,45.814-102.226,102.218c0,56.419,45.822,102.024,102.226,102.024
		C188.766,334.688,212.758,324.69,230.767,308.282L230.767,308.282z"/>
	<path style="fill:#009DDD;" d="M230.767,308.282c20.61-18.604,33.616-45.616,33.616-75.618c0-30.009-13.01-57.006-33.616-75.816
		V308.282L230.767,308.282z"/>
</g>
<path style="fill:#ED1C2E;" d="M299.392,130.446c-26.413,0-50.421,10.006-68.624,26.406c-3.596,3.398-6.993,7.001-10.204,10.81
	h20.602c2.806,3.39,5.407,7.199,7.805,10.795h-36.213c-2.193,3.603-4.195,7.21-6.002,10.803h48.015
	c1.609,3.596,3.199,7.21,4.4,10.806h-56.598c-1.205,3.6-2.208,7.21-3.005,11.001h62.608c1.396,6.803,2.208,14.208,2.208,21.601
	c0,11.203-1.811,22.211-5.212,32.411h-56.598c1.19,3.596,2.593,7.203,4.187,10.803h48.015c-1.796,3.603-3.603,7.401-5.804,10.803
	h-36.213c2.413,3.802,5.007,7.401,7.805,10.803h20.602c-3.195,3.802-6.601,7.405-10.398,10.803
	c18.204,16.408,42.211,26.406,68.624,26.406c56.411,0,102.024-45.605,102.024-102.024
	C401.411,176.261,355.803,130.446,299.392,130.446L299.392,130.446z"/>
<g>
	<path style="fill:#FFFFFF;" d="M366.194,254.67c0-1.804,1.609-3.199,3.405-3.199c1.804,0,3.199,1.396,3.199,3.199
		c0,1.807-1.396,3.405-3.199,3.405C367.803,258.075,366.194,256.477,366.194,254.67L366.194,254.67z M369.599,257.274
		c1.396,0,2.398-1.201,2.398-2.604c0-1.399-1.003-2.402-2.398-2.402c-1.403,0-2.593,1.003-2.593,2.402
		C367.006,256.073,368.196,257.274,369.599,257.274L369.599,257.274z M369.198,256.073h-0.797v-2.803h1.197
		c0.393,0,0.599,0,0.804,0.202c0.198,0.198,0.393,0.393,0.393,0.599c0,0.404-0.198,0.804-0.599,0.804l0.599,1.197h-0.804
		l-0.393-1.003h-0.4V256.073L369.198,256.073z M369.198,254.475h0.4c0,0,0.198,0,0.393,0c0,0,0-0.206,0-0.404v-0.206
		c-0.198,0-0.393,0-0.591,0h-0.206v0.61H369.198z"/>
	<polygon style="fill:#FFFFFF;" points="149.552,258.075 136.755,258.075 144.354,218.266 126.955,258.075 115.341,258.075 
		113.346,218.464 105.747,258.075 94.14,258.075 103.947,206.266 123.943,206.266 124.942,238.266 138.963,206.266 159.546,206.266 
			"/>
	<path style="fill:#FFFFFF;" d="M291.586,257.48c-3.603,0.992-6.204,1.392-9.209,1.392c-6.395,0-10.006-3.199-10.006-9.194
		c0-1.205,0.206-2.41,0.4-3.809l0.797-4.202l0.614-3.195l5.796-32.202h12.599l-1.792,9.594h6.593l-1.796,10.211h-6.6l-3.199,17.598
		c-0.206,0.801-0.4,1.403-0.4,1.8c0,2.204,1.403,3.195,4.408,3.195c1.396,0,2.586-0.198,3.398-0.397L291.586,257.48L291.586,257.48z
		"/>
	<path style="fill:#FFFFFF;" d="M328.593,216.272c-1.003-0.408-1.197-0.408-1.396-0.408c-0.606-0.206-1.003-0.206-1.003-0.397
		c-0.408,0-0.804,0-1.396,0c-4.21,0-7.207,1.8-11.012,6.795l1.197-6.398h-11.607l-7.798,42.211h12.804
		c4.599-25.815,6.402-30.41,12.599-30.41c0.4,0,1.01,0.202,1.602,0.202l1.403,0.397L328.593,216.272L328.593,216.272z"/>
	<path style="fill:#FFFFFF;" d="M241.166,229.263c0,5.205,3.005,9.003,9.807,11.611c5.205,2.193,6.006,2.799,6.006,4.801
		c0,2.597-2.406,3.802-7.405,3.802c-3.802,0-7.409-0.602-11.607-1.796l-1.601,9.803h0.606l2.193,0.595
		c0.797,0,1.994,0.202,3.398,0.202c3.005,0.393,5.407,0.393,7.207,0.393c13.403,0,19.805-4.4,19.805-13.998
		c0-5.804-2.601-9.201-9.201-11.802c-5.407-2.002-6.002-2.601-6.002-4.602c0-2.193,2.2-3.398,6.402-3.398
		c2.398,0,5.994,0.206,9.194,0.595l1.804-9.598c-3.398-0.591-8.397-0.797-11.203-0.797
		C246.172,215.067,241.166,221.465,241.166,229.263L241.166,229.263z"/>
	<path style="fill:#FFFFFF;" d="M190.76,258.075h-10.406l0.206-4.408c-3.199,3.405-7.6,5.003-13.403,5.003
		c-6.795,0-11.6-4.599-11.6-11.401c0-10.208,8.191-16.206,22.406-16.206c1.388,0,3.195,0,5.197,0.206c0.4-1.399,0.4-2.006,0.4-2.601
		c0-2.799-2.208-3.802-8.206-3.802c-3.603,0-7.592,0.4-10.398,1.003l-1.796,0.602l-1.205,0.195l1.796-9.399
		c6.41-1.609,10.406-2.2,15.214-2.2c10.993,0,16.599,4.195,16.599,12.194c0,2.204-0.198,3.805-0.995,8.408l-2.601,15.005l-0.4,2.597
		l-0.408,2.208l-0.198,1.392L190.76,258.075L190.76,258.075z M181.559,239.265c-1.411-0.198-2.002-0.198-2.799-0.198
		c-7.207,0-10.803,2.2-10.803,6.406c0,2.597,1.594,4.4,4.393,4.4C177.563,249.873,181.357,245.473,181.559,239.265L181.559,239.265z
		"/>
	<path style="fill:#FFFFFF;" d="M232.563,257.072c-4.393,1.201-8.595,1.796-13.003,1.796c-14.185,0-21.601-6.604-21.601-19.005
		c0-14.406,9.407-25.006,22.211-25.006c10.398,0,17.014,6.002,17.014,15.203c0,3.195-0.408,6.211-1.403,10.406h-25.418
		c0,0.797,0,0.995,0,1.403c0,4.801,3.603,7.398,11.005,7.398c4.602,0,8.801-0.797,13.197-2.593L232.563,257.072L232.563,257.072z
		 M225.768,232.073c0-0.804,0-1.609,0-2.204c0-3.398-2.208-5.407-6.002-5.407c-4.004,0-6.803,2.799-8.011,7.611H225.768
		L225.768,232.073z"/>
	<path style="fill:#FFFFFF;" d="M368.196,238.868c-2.002,13.994-11.802,20.198-24.812,20.198c-14.193,0-19.989-8.595-19.989-19.397
		c0-14.806,9.792-25.018,24.995-25.018c13.205,0,20.206,8.404,20.206,19.008C368.6,236.275,368.6,236.47,368.196,238.868
		L368.196,238.868z M354.998,233.461c0-4.4-1.804-8.389-6.993-8.389c-6.417,0-10.413,7.592-10.413,14.398
		c0,5.605,2.806,9.403,7.207,9.403c2.799,0,8.801-3.798,9.8-10.2C354.998,237.065,354.998,235.272,354.998,233.461L354.998,233.461z
		"/>
</g>
    </symbol> 

	<symbol id="vk"  viewBox="0 0 548.358 548.358">
     <g>
	<path d="M545.451,400.298c-0.664-1.431-1.283-2.618-1.858-3.569c-9.514-17.135-27.695-38.167-54.532-63.102l-0.567-0.571
		l-0.284-0.28l-0.287-0.287h-0.288c-12.18-11.611-19.893-19.418-23.123-23.415c-5.91-7.614-7.234-15.321-4.004-23.13
		c2.282-5.9,10.854-18.36,25.696-37.397c7.807-10.089,13.99-18.175,18.556-24.267c32.931-43.78,47.208-71.756,42.828-83.939
		l-1.701-2.847c-1.143-1.714-4.093-3.282-8.846-4.712c-4.764-1.427-10.853-1.663-18.278-0.712l-82.224,0.568
		c-1.332-0.472-3.234-0.428-5.712,0.144c-2.475,0.572-3.713,0.859-3.713,0.859l-1.431,0.715l-1.136,0.859
		c-0.952,0.568-1.999,1.567-3.142,2.995c-1.137,1.423-2.088,3.093-2.848,4.996c-8.952,23.031-19.13,44.444-30.553,64.238
		c-7.043,11.803-13.511,22.032-19.418,30.693c-5.899,8.658-10.848,15.037-14.842,19.126c-4,4.093-7.61,7.372-10.852,9.849
		c-3.237,2.478-5.708,3.525-7.419,3.142c-1.715-0.383-3.33-0.763-4.859-1.143c-2.663-1.714-4.805-4.045-6.42-6.995
		c-1.622-2.95-2.714-6.663-3.285-11.136c-0.568-4.476-0.904-8.326-1-11.563c-0.089-3.233-0.048-7.806,0.145-13.706
		c0.198-5.903,0.287-9.897,0.287-11.991c0-7.234,0.141-15.085,0.424-23.555c0.288-8.47,0.521-15.181,0.716-20.125
		c0.194-4.949,0.284-10.185,0.284-15.705s-0.336-9.849-1-12.991c-0.656-3.138-1.663-6.184-2.99-9.137
		c-1.335-2.95-3.289-5.232-5.853-6.852c-2.569-1.618-5.763-2.902-9.564-3.856c-10.089-2.283-22.936-3.518-38.547-3.71
		c-35.401-0.38-58.148,1.906-68.236,6.855c-3.997,2.091-7.614,4.948-10.848,8.562c-3.427,4.189-3.905,6.475-1.431,6.851
		c11.422,1.711,19.508,5.804,24.267,12.275l1.715,3.429c1.334,2.474,2.666,6.854,3.999,13.134c1.331,6.28,2.19,13.227,2.568,20.837
		c0.95,13.897,0.95,25.793,0,35.689c-0.953,9.9-1.853,17.607-2.712,23.127c-0.859,5.52-2.143,9.993-3.855,13.418
		c-1.715,3.426-2.856,5.52-3.428,6.28c-0.571,0.76-1.047,1.239-1.425,1.427c-2.474,0.948-5.047,1.431-7.71,1.431
		c-2.667,0-5.901-1.334-9.707-4c-3.805-2.666-7.754-6.328-11.847-10.992c-4.093-4.665-8.709-11.184-13.85-19.558
		c-5.137-8.374-10.467-18.271-15.987-29.691l-4.567-8.282c-2.855-5.328-6.755-13.086-11.704-23.267
		c-4.952-10.185-9.329-20.037-13.134-29.554c-1.521-3.997-3.806-7.04-6.851-9.134l-1.429-0.859c-0.95-0.76-2.475-1.567-4.567-2.427
		c-2.095-0.859-4.281-1.475-6.567-1.854l-78.229,0.568c-7.994,0-13.418,1.811-16.274,5.428l-1.143,1.711
		C0.288,140.146,0,141.668,0,143.763c0,2.094,0.571,4.664,1.714,7.707c11.42,26.84,23.839,52.725,37.257,77.659
		c13.418,24.934,25.078,45.019,34.973,60.237c9.897,15.229,19.985,29.602,30.264,43.112c10.279,13.515,17.083,22.176,20.412,25.981
		c3.333,3.812,5.951,6.662,7.854,8.565l7.139,6.851c4.568,4.569,11.276,10.041,20.127,16.416
		c8.853,6.379,18.654,12.659,29.408,18.85c10.756,6.181,23.269,11.225,37.546,15.126c14.275,3.905,28.169,5.472,41.684,4.716h32.834
		c6.659-0.575,11.704-2.669,15.133-6.283l1.136-1.431c0.764-1.136,1.479-2.901,2.139-5.276c0.668-2.379,1-5,1-7.851
		c-0.195-8.183,0.428-15.558,1.852-22.124c1.423-6.564,3.045-11.513,4.859-14.846c1.813-3.33,3.859-6.14,6.136-8.418
		c2.282-2.283,3.908-3.666,4.862-4.142c0.948-0.479,1.705-0.804,2.276-0.999c4.568-1.522,9.944-0.048,16.136,4.429
		c6.187,4.473,11.99,9.996,17.418,16.56c5.425,6.57,11.943,13.941,19.555,22.124c7.617,8.186,14.277,14.271,19.985,18.274
		l5.708,3.426c3.812,2.286,8.761,4.38,14.853,6.283c6.081,1.902,11.409,2.378,15.984,1.427l73.087-1.14
		c7.229,0,12.854-1.197,16.844-3.572c3.998-2.379,6.373-5,7.139-7.851c0.764-2.854,0.805-6.092,0.145-9.712
		C546.782,404.25,546.115,401.725,545.451,400.298z"/>
</g>
    </symbol> 

	<symbol id="face__book"  viewBox="0 0 167.657 167.657">
   <g>
	<path d="M83.829,0.349C37.532,0.349,0,37.881,0,84.178c0,41.523,30.222,75.911,69.848,82.57v-65.081H49.626
		v-23.42h20.222V60.978c0-20.037,12.238-30.956,30.115-30.956c8.562,0,15.92,0.638,18.056,0.919v20.944l-12.399,0.006
		c-9.72,0-11.594,4.618-11.594,11.397v14.947h23.193l-3.025,23.42H94.026v65.653c41.476-5.048,73.631-40.312,73.631-83.154
		C167.657,37.881,130.125,0.349,83.829,0.349z"/>
</g>
    </symbol> 

	<symbol id="twitter"  viewBox="0 0 512 512">
    <g>
		<path d="M512,97.248c-19.04,8.352-39.328,13.888-60.48,16.576c21.76-12.992,38.368-33.408,46.176-58.016
			c-20.288,12.096-42.688,20.64-66.56,25.408C411.872,60.704,384.416,48,354.464,48c-58.112,0-104.896,47.168-104.896,104.992
			c0,8.32,0.704,16.32,2.432,23.936c-87.264-4.256-164.48-46.08-216.352-109.792c-9.056,15.712-14.368,33.696-14.368,53.056
			c0,36.352,18.72,68.576,46.624,87.232c-16.864-0.32-33.408-5.216-47.424-12.928c0,0.32,0,0.736,0,1.152
			c0,51.008,36.384,93.376,84.096,103.136c-8.544,2.336-17.856,3.456-27.52,3.456c-6.72,0-13.504-0.384-19.872-1.792
			c13.6,41.568,52.192,72.128,98.08,73.12c-35.712,27.936-81.056,44.768-130.144,44.768c-8.608,0-16.864-0.384-25.12-1.44
			C46.496,446.88,101.6,464,161.024,464c193.152,0,298.752-160,298.752-298.688c0-4.64-0.16-9.12-0.384-13.568
			C480.224,136.96,497.728,118.496,512,97.248z"/>
	</g>
    </symbol>

	<symbol id="google"  viewBox="0 0 512 512">
    <path d="m512 256c0-16.084-1.509-32.183-4.497-47.813-1.348-7.075-7.544-12.188-14.736-12.188h-235.767c-8.291 0-15 6.709-15 15v90c0 8.291 6.709 15 15 15h120.967c-7.537 15.258-17.924 28.497-30.121 39.635l84.78 84.78c48.781-46.475 79.374-111.875 79.374-184.414z"/>
    <path d="m256 120c29.429 0 57.422 9.346 80.947 27.041 5.947 4.468 14.341 3.926 19.614-1.392l64.014-64.014c2.974-2.974 4.57-7.061 4.38-11.265s-2.124-8.13-5.347-10.84c-45.805-38.392-103.916-59.53-163.608-59.53-87.849 0-165.458 44.654-211.337 112.452l88.048 88.048c21.006-47.316 68.268-80.5 123.289-80.5z"/>
    <path d="m256 512c57.263 0 109.993-19.2 152.602-51.187l-86.371-86.371c-19.742 11.116-42.306 17.558-66.231 17.558-55.021 0-102.283-33.184-123.289-80.5l-88.048 88.048c45.879 67.798 123.488 112.452 211.337 112.452z"/>
    <path d="m122.184 277.605c-1.149-7.079-2.184-14.208-2.184-21.605s1.035-14.526 2.184-21.605l-94.124-94.124c-17.808 34.78-28.06 74.045-28.06 115.729s10.252 80.949 28.061 115.728z"/>
    </symbol> 

	<symbol id="instagram"  viewBox="0 0 512 512">
    <path d="m301 256c0 24.851562-20.148438 45-45 45s-45-20.148438-45-45 20.148438-45 45-45 45 20.148438 45 45zm0 0"/>
    <path d="m332 120h-152c-33.085938 0-60 26.914062-60 60v152c0 33.085938 26.914062 60 60 60h152c33.085938 0 60-26.914062 60-60v-152c0-33.085938-26.914062-60-60-60zm-76 211c-41.355469 0-75-33.644531-75-75s33.644531-75 75-75 75 33.644531 75 75-33.644531 75-75 75zm86-146c-8.285156 0-15-6.714844-15-15s6.714844-15 15-15 15 6.714844 15 15-6.714844 15-15 15zm0 0"/>
    <path d="m377 0h-242c-74.4375 0-135 60.5625-135 135v242c0 74.4375 60.5625 135 135 135h242c74.4375 0 135-60.5625 135-135v-242c0-74.4375-60.5625-135-135-135zm45 332c0 49.625-40.375 90-90 90h-152c-49.625 0-90-40.375-90-90v-152c0-49.625 40.375-90 90-90h152c49.625 0 90 40.375 90 90zm0 0"/>
    </symbol> 


    <symbol id="diplom" viewBox="0 0 512.002 512.002">
        <g>
            <path
                d="m394.715 367.619c24.854 0 45.074-20.22 45.074-45.073 0-24.854-20.22-45.074-45.074-45.074s-45.073 20.22-45.073 45.074c0 24.853 20.219 45.073 45.073 45.073zm0-75.148c16.583 0 30.074 13.491 30.074 30.074 0 16.582-13.491 30.073-30.074 30.073-16.582 0-30.073-13.491-30.073-30.073 0-16.583 13.491-30.074 30.073-30.074z" />
            <path
                d="m320.131 139.14c4.143 0 7.5-3.358 7.5-7.5s-3.357-7.5-7.5-7.5h-128.26c-4.143 0-7.5 3.358-7.5 7.5s3.357 7.5 7.5 7.5z" />
            <path
                d="m295.565 287.208c0-4.143-3.357-7.5-7.5-7.5h-64.13c-4.143 0-7.5 3.357-7.5 7.5s3.357 7.5 7.5 7.5h64.13c4.143 0 7.5-3.357 7.5-7.5z" />
            <path
                d="m120.241 162.694c0 4.142 3.357 7.5 7.5 7.5h256.52c4.143 0 7.5-3.358 7.5-7.5s-3.357-7.5-7.5-7.5h-256.52c-4.142 0-7.5 3.358-7.5 7.5z" />
            <path
                d="m127.741 201.247h256.52c4.143 0 7.5-3.357 7.5-7.5 0-4.142-3.357-7.5-7.5-7.5h-256.52c-4.143 0-7.5 3.358-7.5 7.5s3.358 7.5 7.5 7.5z" />
            <path
                d="m127.741 232.3h256.52c4.143 0 7.5-3.357 7.5-7.5s-3.357-7.5-7.5-7.5h-256.52c-4.143 0-7.5 3.357-7.5 7.5s3.358 7.5 7.5 7.5z" />
            <path
                d="m0 63.239v271.92c0 21.526 17.514 39.04 39.04 39.04h301.423c.514.224 1.031.431 1.548.627v98.725c0 5.351 2.953 10.2 7.708 12.656 2.069 1.069 4.312 1.597 6.544 1.597 2.896 0 5.773-.888 8.237-2.637l15.68-11.128h.001l14.534-10.314 30.215 21.442c4.364 3.099 10.03 3.493 14.782 1.04 4.754-2.456 7.707-7.306 7.707-12.656v-98.724c.518-.196 1.035-.404 1.55-.628h23.993c21.526 0 39.04-17.514 39.04-39.04v-118.46c0-4.143-3.357-7.5-7.5-7.5s-7.5 3.357-7.5 7.5v118.46c0 13.256-10.784 24.04-24.04 24.04h-12.48c.752-5.719-.386-12.03.607-15.088 1.448-4.464 10.868-11.362 10.868-21.565 0-6.696-3.986-11.84-7.188-15.972-3.225-4.162-3.652-5.048-3.906-6.601 2.028-.43 4.099-.654 6.2-.654 8.768.063 14.939-6.775 14.939-14.582v-171.076c0-8.183-6.676-14.671-14.666-14.583-17.116.061-30.33-13.657-30.212-30.211.071-8.1-6.489-14.667-14.584-14.667h-333.078c-7.632 0-14.615 5.95-14.583 14.938.002 16.345-13.135 30.001-30.212 29.94-8.036-.086-14.667 6.438-14.667 14.583v171.076c0 7.714 6.073 14.643 14.944 14.582 16.262.002 29.996 13.148 29.934 30.211-.071 8.102 6.489 14.668 14.584 14.668h149.039c4.143 0 7.5-3.357 7.5-7.5s-3.357-7.5-7.5-7.5h-148.622c-.032-24.732-20.146-44.846-44.879-44.879v-170.241c24.792-.032 44.847-20.079 44.879-44.879h332.243c.016 11.984 4.689 23.247 13.162 31.72 8.474 8.472 19.735 13.144 31.718 13.159v170.241c-2.251.003-4.482.172-6.683.505-1.896-10.843-10.001-13.86-18.072-16.232-6.859-2.014-6.909-2.11-10.814-7.845-2.925-4.296-6.565-9.642-12.845-11.681-6.073-1.968-12.049.148-16.852 1.853-6.893 2.442-7.15 2.442-14.042 0-3.883-1.378-8.534-3.026-13.383-2.564h-246.57c-4.143 0-7.5 3.357-7.5 7.5s3.357 7.5 7.5 7.5h228.432c-.866 1.176-1.71 2.187-2.472 2.742-4.553 3.314-19.178 2.909-23.648 15.143-2.657 7.27-.425 15.781-1.711 19.741-1.731 5.338-15.076 14.361-9.542 28.218h-45.299c-4.143 0-7.5 3.357-7.5 7.5s3.357 7.5 7.5 7.5h54.863c.952 3.114-.166 9.301.585 15.001h-289.909c-13.256 0-24.04-10.784-24.04-24.04v-271.921c0-13.256 10.784-24.04 24.04-24.04h433.922c13.256 0 24.04 10.784 24.04 24.04v118.46c0 4.142 3.357 7.5 7.5 7.5s7.5-3.358 7.5-7.5v-118.46c0-21.527-17.514-39.04-39.04-39.04h-433.922c-21.526 0-39.04 17.513-39.04 39.04zm368.34 400.809-11.329 8.04v-89.18c2.738 3.933 5.915 9.257 11.329 12.06zm37.752-10.645-3.13-2.221c-.308-.219-.623-.424-.944-.616-2.245-1.341-4.775-2.011-7.303-2.011-2.89 0-5.779.875-8.244 2.626l-3.131 2.222v-57.784c15.048-4.389 7.113-4.542 22.752 0zm26.327 18.685-11.327-8.039v-69.081c5.408-2.802 8.581-8.116 11.327-12.06zm-95.9-156.326c6.342-8.185 7.49-11.391 7.2-22.261-.207-7.773-.051-7.906 3.964-9.344 11.146-3.991 14.334-2.664 22.712-14.969 1.621-2.379 3.632-5.33 5.031-5.835 1.641 0 1.609-.302 7.254 1.701 10.249 3.637 13.873 3.618 24.069 0 2.522-.895 5.979-2.123 7.205-1.722 1.401.454 3.44 3.449 5.08 5.856 5.997 8.804 8.748 10.786 18.983 13.794 8.084 2.375 7.916 2.161 7.693 10.519-.283 10.869.843 14.058 7.2 22.26 5.274 6.807 5.279 6.757 0 13.566-7.243 9.344-7.36 12.147-7.164 23.869.136 8.208-.419 6.169-11.998 10.248-7.48 2.625-10.221 5.856-14.715 12.454-4.9 7.198-4.626 6.843-12.292 4.129-14.248-5.042-16.256-2.152-27.73 1.227-4.566 1.331-4.057.955-10.254-7.717-9.703-13.577-19.931-9.906-24.267-14.253-1.049-1.109-.828-5.666-.773-7.698.229-8.655-.244-12.616-4.96-19.282-7.054-9.851-8.499-8.467-2.238-16.542z" />
        </g>
    </symbol>
    <symbol id="planet" viewBox="0 0 512.002 512.002">
        <g>
            <path style="fill:#1E0478;" d="M437.02,74.98C485.376,123.335,512,187.62,512,256s-26.624,132.665-74.98,181.02S324.38,512,256,512
	s-132.665-26.624-181.02-74.98S0,324.38,0,256S26.624,123.335,74.98,74.98S187.62,0,256,0S388.665,26.624,437.02,74.98z
	 M489.244,256c0-13.835-1.217-27.386-3.538-40.562l-6.645,1.274c-0.125,0.034-0.228,0.125-0.262,0.25l-2.287,9.216
	c-1.866,7.532-7.35,13.585-14.655,16.191c-7.316,2.605-15.394,1.377-21.595-3.277l-13.665-10.251
	c-0.102-0.068-0.239-0.08-0.353-0.023l-17.044,8.92c-0.091,0.057-0.148,0.091-0.148,0.102c-0.046,0.08-0.034,0.341,0.034,0.432
	c0,0,0.046,0.034,0.148,0.068l0.808,0.307c7.088,2.651,12.413,8.613,14.268,15.94c1.866,7.339,0.011,15.11-4.961,20.821
	l-10.615,12.208c-7.487,8.613-20.355,10.433-29.935,4.244l-28.615-18.466c-0.102-0.057-0.159-0.091-0.319-0.023
	c-0.159,0.08-0.171,0.137-0.193,0.25l-2.207,13.494c-0.011,0.114,0.023,0.216,0.102,0.296l14.928,13.961
	c8.238,7.714,9.717,20.15,3.504,29.571l-24.337,36.875c-0.023,0.046-0.046,0.114-0.046,0.171l-2.116,52.793
	c-0.239,5.905-2.685,11.423-6.906,15.565l-32.393,31.755c-4.426,4.335-10.274,6.588-16.191,6.588c-3.994,0-8.021-1.035-11.639-3.163
	l-21.003-12.299c-5.552-3.254-9.512-8.715-10.889-14.985l-9.648-44.146l-9.284-24.917c-0.046-0.114-0.148-0.193-0.273-0.205
	l-42.405-3.698c-7.487-0.649-14.199-4.915-17.966-11.412l-24.132-41.597c-2.617-4.517-3.63-9.842-2.856-15.007l6.064-40.346
	c0.91-6.007,4.073-11.332,8.92-14.985l37.046-27.955c6.519-4.915,15.258-6.019,22.79-2.867l35.886,14.962l49.801,5.427
	c0.08,0.011,0.159-0.011,0.228-0.057l32.927-23.609c0.125-0.091,0.171-0.262,0.114-0.398l-3.061-6.838
	c-0.046-0.114-0.159-0.182-0.273-0.193l-92.49-5.063c-3.573-0.193-7.1-1.24-10.206-3.015c-8.146-4.665-12.629-13.687-11.423-22.994
	c1.195-9.296,7.828-16.896,16.885-19.331l27.762-7.487c0.057-0.011,0.102-0.034,0.148-0.08l33.951-32.04
	c3.664-3.459,8.454-5.655,13.483-6.178l51.098-5.257c0.148-0.023,0.262-0.114,0.296-0.25c0,0,12.88-53.202,13.141-53.806
	c-16.009-8.704-33.143-15.565-51.12-20.343l-10.217,11.878c-2.697,3.14-6.155,5.621-10.012,7.157L268.607,60.45
	c-0.478,0.193-0.91,0.501-1.24,0.887l-42.155,49.277c-8.374,9.614-19.376,9.068-19.74,9.068c-7.589,0-14.7-3.254-19.672-9.057
	c-5.211-6.076-7.305-14.063-5.757-21.914c0,0,1.547-5.905,2.742-8.146l19.103-35.954c0.341-0.66,0.455-1.411,0.307-2.139
	l-2.628-12.8c-26.533,6.622-51.302,17.783-73.387,32.643v51.541c0,17.271-8.658,33.2-23.154,42.598l-24.485,15.883
	c-3.14,2.037-5.791,4.631-7.896,7.726l-47.809,70.064c-0.057,1.957-0.08,3.914-0.08,5.871c0,18.17,2.094,35.851,6.042,52.838h21.026
	c9.557,0,18.352,4.801,23.518,12.857l29.275,45.614c0.25,0.375,29.355,26.999,29.355,26.999c6.679,6.087,10.012,15.087,8.909,24.064
	l-4.642,37.706c35.032,21.049,76.004,33.166,119.762,33.166C384.614,489.244,489.244,384.614,489.244,256z M474.761,194.367
	l5.894-1.126c-14.973-53.532-48.606-99.351-93.423-129.957l-11.253,46.751c-2.287,9.5-10.354,16.555-20.082,17.556l-51.098,5.268
	c-0.08,0-0.148,0.034-0.193,0.08l-33.963,32.051c-2.753,2.605-6.155,4.506-9.83,5.495l-27.773,7.487
	c-0.114,0.034-0.171,0.057-0.182,0.068c-0.034,0.046-0.068,0.182-0.068,0.307c0,0.057,0.011,0.102,0.023,0.137
	c0.011,0,0.057,0.034,0.148,0.091c0.046,0.023,0.102,0.046,0.148,0.046l92.49,5.063c8.67,0.478,16.27,5.7,19.809,13.631l3.061,6.838
	c4.449,9.967,1.24,21.823-7.634,28.183l-32.927,23.609c-4.631,3.311-10.274,4.801-15.94,4.187l-49.71-5.404
	c-2.196-0.239-4.346-0.796-6.394-1.65l-35.886-14.973c-0.114-0.034-0.228-0.023-0.33,0.046l-37.035,27.944
	c-0.068,0.057-0.114,0.125-0.125,0.216l-6.064,40.334c-0.011,0.08,0,0.148,0.034,0.216l24.132,41.597
	c0.046,0.091,0.148,0.148,0.25,0.159l42.405,3.686c8.829,0.762,16.532,6.633,19.627,14.939l9.273,24.872
	c0.375,1.024,10.57,47.263,10.57,47.263c0.023,0.091,0.08,0.171,0.159,0.216l21.003,12.311c0.125,0.068,0.284,0.046,0.398-0.057
	l32.393-31.755c0.057-0.057,0.091-0.137,0.102-0.216l2.105-52.793c0.171-4.198,1.491-8.283,3.8-11.787l24.326-36.875
	c0.091-0.137,0.068-0.319-0.046-0.421l-14.928-13.972c-5.643-5.268-8.26-12.971-7.009-20.582l2.207-13.494
	c1.263-7.703,6.269-14.199,13.414-17.374c7.134-3.163,15.314-2.526,21.879,1.707l28.615,18.466c0.148,0.091,0.33,0.057,0.432-0.057
	l10.615-12.22c0.068-0.068,0.114-0.125,0.08-0.296c-0.046-0.171-0.114-0.193-0.205-0.228l-0.808-0.296
	c-8.647-3.254-14.37-10.991-14.928-20.196c-0.569-9.216,4.153-17.59,12.334-21.879l17.044-8.92
	c7.839-4.107,17.476-3.322,24.553,1.98l13.665,10.251c0.08,0.057,0.137,0.102,0.307,0.046c0.159-0.057,0.182-0.125,0.205-0.228
	l2.287-9.227C458.877,202.786,465.954,196.062,474.761,194.367z M287.186,28.479c0.466-0.193,3.209-3.186,3.209-3.186
	c-11.23-1.661-22.71-2.537-34.395-2.537c-11.583,0-22.972,0.865-34.111,2.503l2.594,12.641c1.206,5.894,0.319,12.072-2.503,17.385
	L202.877,91.25c-0.148,0.273-1.297,2.901,0.193,4.574c0.387,0.421,1.217,1.161,2.56,1.104c0.876-0.034,1.718-0.444,2.287-1.115
	l42.155-49.266c2.719-3.174,6.19-5.666,10.058-7.214L287.186,28.479z M118.295,415.585c0.205-1.661-0.421-3.334-1.661-4.46
	l-28.479-25.975c-1.798-1.638-3.368-3.504-4.688-5.552l-29.275-45.613c-0.956-1.49-2.594-2.389-4.369-2.389H35.339
	c15.167,44.169,43.258,82.387,79.735,110.126L118.295,415.585z M103.424,113.857V79.724
	c-35.783,31.004-62.054,72.715-73.808,120.092l22.232-32.586c3.812-5.586,8.624-10.286,14.302-13.972l24.496-15.895
	C98.645,132.176,103.424,123.392,103.424,113.857z"/>
<path style="fill:#94E7EF;" d="M485.706,215.438c2.321,13.175,3.538,26.726,3.538,40.562c0,128.614-104.63,233.244-233.244,233.244
	c-43.759,0-84.73-12.117-119.762-33.166l4.642-37.706c1.104-8.977-2.23-17.977-8.909-24.064c0,0-29.104-26.624-29.355-26.999
	l-29.275-45.614c-5.166-8.055-13.961-12.857-23.518-12.857H28.797c-3.948-16.987-6.042-34.668-6.042-52.838
	c0-1.957,0.023-3.914,0.08-5.871l47.809-70.064c2.105-3.095,4.756-5.689,7.896-7.726l24.485-15.883
	c14.495-9.398,23.154-25.327,23.154-42.598V62.316c22.084-14.859,46.854-26.021,73.387-32.643l2.628,12.8
	c0.148,0.728,0.034,1.479-0.307,2.139l-19.103,35.954c-1.195,2.241-2.742,8.146-2.742,8.146c-1.547,7.851,0.546,15.838,5.757,21.914
	c4.972,5.803,12.083,9.057,19.672,9.057c0.364,0,11.366,0.546,19.74-9.068l42.155-49.277c0.33-0.387,0.762-0.694,1.24-0.887
	l27.045-10.854c3.857-1.536,7.316-4.016,10.012-7.157l10.217-11.878c17.977,4.779,35.112,11.639,51.12,20.343
	c-0.262,0.603-13.141,53.806-13.141,53.806c-0.034,0.137-0.148,0.228-0.296,0.25l-51.098,5.257
	c-5.029,0.523-9.819,2.719-13.483,6.178l-33.951,32.04c-0.046,0.046-0.091,0.068-0.148,0.08l-27.762,7.487
	c-9.057,2.435-15.69,10.035-16.885,19.331c-1.206,9.307,3.277,18.33,11.423,22.994c3.106,1.775,6.633,2.822,10.206,3.015
	l92.49,5.063c0.114,0.011,0.228,0.08,0.273,0.193l3.061,6.838c0.057,0.137,0.011,0.307-0.114,0.398l-32.927,23.609
	c-0.068,0.046-0.148,0.068-0.228,0.057l-49.801-5.427l-35.886-14.962c-7.532-3.152-16.27-2.048-22.79,2.867l-37.046,27.955
	c-4.847,3.652-8.01,8.977-8.92,14.985l-6.064,40.346c-0.774,5.166,0.239,10.49,2.856,15.007l24.132,41.597
	c3.766,6.497,10.479,10.763,17.965,11.412l42.405,3.698c0.125,0.011,0.228,0.091,0.273,0.205l9.284,24.917l9.648,44.146
	c1.377,6.269,5.336,11.73,10.889,14.985l21.003,12.299c3.618,2.128,7.646,3.163,11.639,3.163c5.916,0,11.765-2.253,16.191-6.588
	l32.393-31.755c4.221-4.142,6.667-9.66,6.906-15.565l2.116-52.793c0-0.057,0.023-0.125,0.046-0.171L366,330.945
	c6.212-9.421,4.733-21.857-3.504-29.571l-14.928-13.961c-0.08-0.08-0.114-0.182-0.102-0.296l2.207-13.494
	c0.023-0.114,0.034-0.171,0.193-0.25c0.159-0.068,0.216-0.034,0.319,0.023l28.615,18.466c9.58,6.19,22.448,4.369,29.935-4.244
	l10.615-12.208c4.972-5.712,6.827-13.483,4.961-20.821c-1.855-7.327-7.179-13.289-14.268-15.94l-0.808-0.307
	c-0.102-0.034-0.148-0.068-0.148-0.068c-0.068-0.091-0.08-0.353-0.034-0.432c0-0.011,0.057-0.046,0.148-0.102l17.044-8.92
	c0.114-0.057,0.25-0.046,0.353,0.023l13.665,10.251c6.201,4.654,14.279,5.882,21.595,3.277c7.305-2.605,12.789-8.658,14.655-16.191
	l2.287-9.216c0.034-0.125,0.137-0.216,0.262-0.25L485.706,215.438z"/>
<g>
	<path style="fill:#9B8CCC;" d="M480.654,193.24l-5.894,1.126c-8.806,1.695-15.883,8.42-18.045,17.112l-2.287,9.227
		c-0.023,0.102-0.046,0.171-0.205,0.228c-0.171,0.057-0.228,0.011-0.307-0.046l-13.665-10.251
		c-7.077-5.302-16.714-6.087-24.553-1.98l-17.044,8.92c-8.181,4.289-12.902,12.663-12.334,21.879
		c0.558,9.205,6.281,16.942,14.928,20.196l0.808,0.296c0.091,0.034,0.159,0.057,0.205,0.228c0.034,0.171-0.011,0.228-0.08,0.296
		l-10.615,12.22c-0.102,0.114-0.284,0.148-0.432,0.057l-28.615-18.466c-6.565-4.233-14.746-4.87-21.879-1.707
		c-7.145,3.174-12.151,9.671-13.414,17.374l-2.207,13.494c-1.252,7.612,1.365,15.314,7.009,20.582l14.928,13.972
		c0.114,0.102,0.137,0.284,0.046,0.421l-24.326,36.875c-2.31,3.504-3.63,7.589-3.8,11.787l-2.105,52.793
		c-0.011,0.08-0.046,0.159-0.102,0.216l-32.393,31.755c-0.114,0.102-0.273,0.125-0.398,0.057l-21.003-12.311
		c-0.08-0.046-0.137-0.125-0.159-0.216c0,0-10.194-46.239-10.57-47.263l-9.273-24.872c-3.095-8.306-10.798-14.177-19.627-14.939
		l-42.405-3.686c-0.102-0.011-0.205-0.068-0.25-0.159l-24.132-41.597c-0.034-0.068-0.046-0.137-0.034-0.216l6.064-40.334
		c0.011-0.091,0.057-0.159,0.125-0.216l37.035-27.944c0.102-0.068,0.216-0.08,0.33-0.046l35.886,14.973
		c2.048,0.853,4.198,1.411,6.394,1.65l49.71,5.404c5.666,0.614,11.31-0.876,15.94-4.187l32.927-23.609
		c8.875-6.36,12.083-18.216,7.634-28.183l-3.061-6.838c-3.538-7.93-11.139-13.153-19.809-13.631l-92.49-5.063
		c-0.046,0-0.102-0.023-0.148-0.046c-0.091-0.057-0.137-0.091-0.148-0.091c-0.011-0.034-0.023-0.08-0.023-0.137
		c0-0.125,0.034-0.262,0.068-0.307c0.011-0.011,0.068-0.034,0.182-0.068l27.773-7.487c3.675-0.99,7.077-2.89,9.83-5.495
		l33.963-32.051c0.046-0.046,0.114-0.08,0.193-0.08l51.098-5.268c9.728-1.001,17.795-8.055,20.082-17.556l11.253-46.751
		C432.048,93.889,465.681,139.708,480.654,193.24z"/>
	<path style="fill:#9B8CCC;" d="M290.395,25.293c0,0-2.742,2.992-3.209,3.186L260.13,39.333c-3.868,1.547-7.339,4.039-10.058,7.214
		l-42.155,49.266c-0.569,0.671-1.411,1.081-2.287,1.115c-1.343,0.057-2.173-0.683-2.56-1.104c-1.49-1.673-0.341-4.301-0.193-4.574
		l19.103-35.965c2.822-5.313,3.709-11.492,2.503-17.385l-2.594-12.641c11.139-1.638,22.528-2.503,34.111-2.503
		C267.685,22.756,279.165,23.632,290.395,25.293z"/>
	<path style="fill:#9B8CCC;" d="M116.634,411.125c1.24,1.126,1.866,2.799,1.661,4.46l-3.22,26.135
		c-36.477-27.739-64.569-65.957-79.735-110.126h14.484c1.775,0,3.413,0.899,4.369,2.389l29.275,45.613
		c1.32,2.048,2.89,3.914,4.688,5.552L116.634,411.125z"/>
	<path style="fill:#9B8CCC;" d="M103.424,79.724v34.133c0,9.535-4.779,18.318-12.777,23.506L66.15,153.259
		c-5.678,3.686-10.49,8.385-14.302,13.972l-22.232,32.586C41.37,152.439,67.641,110.729,103.424,79.724z"/>
        </g>
    </symbol>
  
</svg>